<svg version="1.1" xmlns="http://www.w3.org/2000/svg" xmlns:xlink="http://www.w3.org/1999/xlink" viewBox="0 0 608 608">
  <!-- Define the purple to light blue gradient -->
  <defs>
    <linearGradient id="purpleToLightBlueGradient" x1="0%" y1="0%" x2="100%" y2="100%">
      <stop offset="0%" stop-color="#8A2BE2" />
      <stop offset="100%" stop-color="#ADD8E6" />
    </linearGradient>
  </defs>

  <!-- Book shape (black) -->
  <path fill="#000000" d="
    M346.645 293.411
    C372.667 338.834 398.453 383.970 424.410 429.008
    C426.633 432.864 426.618 434.746 422.451 437.144
    C367.438 468.804 312.529 500.645 257.583 532.422
    C256.024 533.324 254.597 534.597 251.944 534.601
    C248.924 529.476 245.705 524.074 242.545 518.638
    C198.917 443.597 155.303 368.548 111.672 293.509
    C105.299 282.547 105.263 282.559 116.180 276.282
    C169.191 245.804 222.204 215.329 275.218 184.855
    C281.964 180.976 282.019 180.953 285.946 187.779
    C306.131 222.876 326.288 257.990 346.645 293.411
    M267.560 294.006
    C273.039 290.838 278.501 287.637 284.006 284.515
    C286.537 283.079 286.963 281.483 285.451 278.838
    C279.583 268.573 273.931 258.184 268.144 247.873
    C267.270 246.315 266.481 244.600 264.179 243.463
    C226.730 265.124 189.043 286.924 150.933 308.967
    C157.615 320.941 164.107 332.165 170.157 343.623
    C172.391 347.854 174.436 347.940 178.271 345.702
    C207.767 328.496 237.369 311.471 267.560 294.006
    z"/>

  <!-- Book pages (black) -->
  <path fill="#000000" d="
    M174.049 230.124
    C144.672 247.101 115.613 263.902 86.555 280.702
    C86.154 280.328 85.752 279.955 85.351 279.582
    C114.850 238.834 144.348 198.085 173.742 157.482
    C176.215 158.464 176.858 160.088 177.755 161.450
    C187.275 175.907 196.670 190.449 206.349 204.799
    C208.790 208.418 208.606 210.355 204.658 212.530
    C194.459 218.150 184.452 224.117 174.049 230.124
    z"/>

  <path fill="#000000" d="
    M185.767 430.293
    C205.843 464.889 225.677 499.202 245.686 533.413
    C247.755 536.952 247.659 538.536 243.770 540.554
    C233.253 546.011 235.065 546.279 229.437 536.490
    C183.620 456.798 137.806 377.106 92.058 297.375
    C91.099 295.705 88.555 293.578 90.843 291.693
    C93.863 289.205 97.161 286.603 101.272 286.279
    C102.634 286.172 103.303 288.302 104.044 289.577
    C126.313 327.866 148.567 366.164 170.816 404.465
    C175.751 412.961 180.657 421.474 185.767 430.293
    z"/>

  <!-- Wand (black with purple to light blue gradient tip) -->
  <!-- <path fill="url(#purpleToLightBlueGradient)" d=" -->
  <path fill="#000000" d="
    M422.457 202.390
    C463.341 216.144 503.833 229.825 544.404 243.267
    C548.486 244.619 549.149 246.455 548.025 250.139
    C546.581 254.875 545.461 259.710 544.004 265.253
    C537.450 263.103 531.346 261.169 525.286 259.102
    C484.678 245.254 444.078 231.381 403.481 217.499
    C401.256 216.738 398.971 216.498 396.660 216.180
    C391.751 215.505 387.737 213.407 386.442 208.078
    C385.376 203.690 388.064 197.111 391.934 194.475
    C396.165 191.592 401.340 191.349 405.373 194.816
    C410.290 199.043 416.410 200.030 422.457 202.390
    M518.306 243.326
    C484.131 231.759 449.958 220.187 415.781 208.627
    C410.332 206.784 409.832 207.076 408.892 212.876
    C451.777 227.181 494.748 241.513 537.945 255.922
    C538.678 253.845 539.550 252.605 538.930 250.465
    C532.504 248.214 525.786 245.861 518.306 243.326
    z"/>

  <!-- Stars (purple to light blue gradient) -->
  <path fill="url(#purpleToLightBlueGradient)" d="
    M342.075 99.890
    C338.337 98.584 334.943 97.436 331.550 96.289
    C331.373 95.836 331.195 95.383 331.018 94.930
    C344.830 90.802 355.289 83.147 359.750 68.422
    C363.277 82.037 371.259 90.473 385.192 94.038
    C371.278 98.165 361.870 106.306 358.536 120.834
    C355.265 111.797 351.835 103.556 342.075 99.890
    z"/>

  <path fill="url(#purpleToLightBlueGradient)" d="
    M259.941 115.955
    C264.302 111.823 266.123 106.603 269.007 100.914
    C272.298 114.225 281.443 121.052 294.097 124.837
    C282.126 130.006 271.367 135.976 268.722 150.606
    C265.114 136.090 254.258 130.092 241.810 125.276
    C248.226 122.384 254.611 120.557 259.941 115.955
    z"/>

  <path fill="url(#purpleToLightBlueGradient)" d="
    M329.049 168.070
    C330.624 165.741 331.972 163.687 334.127 160.406
    C336.052 168.209 339.994 173.236 347.264 175.300
    C339.947 177.662 334.800 181.632 332.363 189.419
    C330.236 182.070 325.974 177.262 317.488 175.896
    C321.782 172.487 326.190 171.671 329.049 168.070
    z"/>

  <path fill="url(#purpleToLightBlueGradient)" d="
    M201.433 105.610
    C199.763 104.314 197.757 104.065 196.647 102.022
    C200.478 99.784 205.028 98.351 206.528 91.521
    C209.398 97.558 212.978 100.522 218.851 102.236
    C213.592 105.273 209.421 107.936 207.493 113.466
    C204.903 110.682 204.348 107.403 201.433 105.610
    z"/>

  <path fill="url(#purpleToLightBlueGradient)" d="
    M289.988 78.999
    C288.391 78.156 287.083 77.498 285.242 76.573
    C288.336 73.639 292.301 72.372 294.483 68.290
    C296.188 72.240 298.622 74.741 302.613 76.279
    C299.353 78.508 296.218 80.043 294.541 84.120
    C292.837 82.148 291.556 80.667 289.988 78.999
    z"/>
</svg>
    M329.049 168.070
    C330.624 165.741 331.972 163.687 334.127 160.406
    C336.052 168.209 339.994 173.236 347.264 175.300
    C339.947 177.662 334.800 181.632 332.363 189.419
    C330.236 182.070 325.974 177.262 317.488 175.896
    C321.782 172.487 326.190 171.671 329.049 168.070
    z"/>

  <path fill="url(#purpleToLightBlueGradient)" d="
    M201.433 105.610
    C199.763 104.314 197.757 104.065 196.647 102.022
    C200.478 99.784 205.028 98.351 206.528 91.521
    C209.398 97.558 212.978 100.522 218.851 102.236
    C213.592 105.273 209.421 107.936 207.493 113.466
    C204.903 110.682 204.348 107.403 201.433 105.610
    z"/>

  <path fill="url(#purpleToLightBlueGradient)" d="
    M289.988 78.999
    C288.391 78.156 287.083 77.498 285.242 76.573
    C288.336 73.639 292.301 72.372 294.483 68.290
    C296.188 72.240 298.622 74.741 302.613 76.279
    C299.353 78.508 296.218 80.043 294.541 84.120
    C292.837 82.148 291.556 80.667 289.988 78.999
    z"/>
</svg>
